<svg id="visual" viewBox="0 0 900 600" width="900" height="600" xmlns="http://www.w3.org/2000/svg" xmlns:xlink="http://www.w3.org/1999/xlink" version="1.1"><rect x="0" y="0" width="900" height="600" fill="#fff"></rect><path d="M383 600L396.8 585.7C410.7 571.3 438.3 542.7 464.2 514.2C490 485.7 514 457.3 511.3 428.8C508.7 400.3 479.3 371.7 479.3 343C479.3 314.3 508.7 285.7 498.3 257C488 228.3 438 199.7 427.5 171.2C417 142.7 446 114.3 446 85.8C446 57.3 417 28.7 402.5 14.3L388 0L900 0L900 14.3C900 28.7 900 57.3 900 85.8C900 114.3 900 142.7 900 171.2C900 199.7 900 228.3 900 257C900 285.7 900 314.3 900 343C900 371.7 900 400.3 900 428.8C900 457.3 900 485.7 900 514.2C900 542.7 900 571.3 900 585.7L900 600Z" fill="#24c35c" stroke-linecap="round" stroke-linejoin="miter"></path></svg>